<?xml version="1.0" standalone="no"?>
<!DOCTYPE svg PUBLIC "-//W3C//DTD SVG 20010904//EN"
 "http://www.w3.org/TR/2001/REC-SVG-20010904/DTD/svg10.dtd">
<svg version="1.0" xmlns="http://www.w3.org/2000/svg"
 width="256.000000pt" height="256.000000pt" viewBox="0 0 256.000000 256.000000"
 preserveAspectRatio="xMidYMid meet">
<metadata>
Created by potrace 1.11, written by Peter Selinger 2001-2013
</metadata>
<g transform="translate(0.000000,256.000000) scale(0.100000,-0.100000)"
fill="#000000" stroke="none">
<path d="M1150 2555 c-8 -2 -49 -9 -90 -16 -41 -7 -77 -13 -80 -14 -435 -110
-774 -423 -914 -845 -50 -151 -64 -249 -61 -420 2 -80 5 -154 8 -165 2 -11 8
-40 13 -65 4 -25 8 -47 9 -50 1 -3 5 -18 9 -35 4 -16 10 -37 13 -45 3 -8 7
-19 8 -25 6 -24 47 -120 76 -177 180 -358 545 -622 939 -681 93 -14 346 -16
400 -3 14 3 39 9 55 11 183 32 401 138 565 274 220 182 379 450 436 733 19 97
26 336 13 423 -38 242 -132 456 -280 637 -183 223 -457 387 -741 444 -72 14
-335 27 -378 19z"/>
</g>
</svg>
